# xmcd CD database file
#
# Track frame offsets:
#	150
#	10445
#	22406
#	36532
#	48859
#	63087
#	76097
#	89273
#	103335
#	115948
#	129032
#	142471
#	156590
#	171702
#	184412
#
# Disc length: 2615 seconds
#
# Revision: 3
# Processed by: cddbd v1.5.2PL0 Copyright (c) Steve Scherf et al.
# Submitted via: CDex 1.70beta2
#
DISCID=de0a350f
DTITLE=Various Artist - The Greatest Gospel Sounds
DYEAR=2002
DGENRE=Gospel
TTITLE0=Mahalia Jackson - Amazing Grace
TTITLE1=The Golden Gate Quartet - Fit The Battle Of Jericho
TTITLE2=Sister Wynona Carr - God Is A Battle-Axe
TTITLE3=Mitchell's Christian Singers - When The Saints Go Marching In
TTITLE4=Louis Armstrong - Nobody Knows The Trouble I've Seen
TTITLE5=Famous Wardsingers - How Far Am I From Canaan?
TTITLE6=The Pilgrim Travelers - Mother Bowed
TTITLE7=The Charioteers - All God's Chillum Got Shot
TTITLE8=The Detroiters - Body And Soul
TTITLE9=Professor J. Earle Hines - God Be With You
TTITLE10=Cora Martin - Didn't It Rain
TTITLE11=R. L. Knowels - I Want To Rest
TTITLE12=Mahalia Jackson - Move On Up Little Higher (Part 1)
TTITLE13=Georgia Peach and Her Gospel Singers - Do Lord Send Me
TTITLE14=Wright Brothers Gospel Singers - Gospel Train
EXTD=YEAR: 2002
EXTT0=
EXTT1=
EXTT2=
EXTT3=
EXTT4=
EXTT5=
EXTT6=
EXTT7=
EXTT8=
EXTT9=
EXTT10=
EXTT11=
EXTT12=
EXTT13=
EXTT14=
PLAYORDER=
